<?xml version="1.0" encoding="utf-8"?>
<!-- Generator: Adobe Illustrator 22.1.0, SVG Export Plug-In . SVG Version: 6.00 Build 0)  -->
<svg version="1.1" id="Group_159" xmlns="http://www.w3.org/2000/svg" xmlns:xlink="http://www.w3.org/1999/xlink" x="0px" y="0px"
	 viewBox="0 0 218.5 3.7" style="enable-background:new 0 0 218.5 3.7;" xml:space="preserve">
<style type="text/css">
	.st0{fill:#EB672F;}
	.st1{fill:#D20C4C;}
	.st2{fill:#1E284C;}
</style>
<path id="Path_602" class="st0" d="M217.4,0H1.9c0,0-0.1,0-0.1,0v0l0,0C1.5,0.1,1.2,0.2,1,0.5l0,0L0.6,1.2L0.8,1c0,0.1,0,0.3,0,0.4
	c0,0.8,0.5,1.4,1.1,1.4h215.6c0.6,0,1.1-0.6,1.1-1.4S218,0,217.4,0z"/>
<path id="Path_603" class="st1" d="M218.1,2.4c0.3-0.3,0.4-0.6,0.4-1c0-0.7-0.6-1.4-1.3-1.4v0l-0.9,0.9v2.8l0.4-0.9h0.4
	c0.1,0,0.1,0,0.2,0l0,0.4L218.1,2.4L218.1,2.4L218.1,2.4L218.1,2.4z"/>
<path id="Rectangle_897" class="st2" d="M1.4,0.9h214.8c0.8,0,1.4,0.6,1.4,1.4l0,0c0,0.8-0.6,1.4-1.4,1.4H1.4C0.6,3.7,0,3.1,0,2.3
	l0,0C0,1.5,0.6,0.9,1.4,0.9z"/>
</svg>
