<?xml version="1.0" encoding="utf-8"?>
<!-- Generator: Adobe Illustrator 22.1.0, SVG Export Plug-In . SVG Version: 6.00 Build 0)  -->
<svg version="1.1" id="Livello_1" xmlns="http://www.w3.org/2000/svg" xmlns:xlink="http://www.w3.org/1999/xlink" x="0px" y="0px"
	 viewBox="0 0 100 100" style="enable-background:new 0 0 100 100;" xml:space="preserve">
<style type="text/css">
	.st0{fill:#FF6725;stroke:#FF6725;stroke-linecap:round;stroke-linejoin:round;}
	.st1{fill:#D4024A;stroke:#D4024A;stroke-linecap:round;stroke-linejoin:round;}
	.st2{fill:#27234D;stroke:#27234D;stroke-linecap:round;stroke-linejoin:round;}
	.st3{fill:none;stroke:#F3F2F3;stroke-width:2;stroke-linecap:round;stroke-linejoin:round;}
</style>
<g>
	<path id="Path_651" class="st0" d="M6,0.7L0.7,5.8L4,8.6L5.9,8v86.1h93.4V0.7H6z"/>
	<path id="Path_652" class="st1" d="M93.9,6l5.5-5.3v93.4l-5.3,5.1L93.9,6z"/>
	<rect id="Rectangle_939" x="0.6" y="5.9" class="st2" width="93.4" height="93.4"/>
	<g id="Group_184" transform="translate(2164.313 -1023.69)">
		<path id="Path_656" class="st3" d="M-2096.8,1087.5h-35l-6.5-36.4h-7.9"/>
		<path id="Path_657" class="st3" d="M-2137.2,1057.6h46.8l-5.6,20.6h-37.6"/>
		<circle id="Ellipse_96" class="st3" cx="-2126.5" cy="1097.4" r="4.6"/>
		<path id="Ellipse_97" class="st3" d="M-2105.7,1092.8c2.5,0,4.6,2.1,4.6,4.6s-2.1,4.6-4.6,4.6s-4.6-2.1-4.6-4.6
			S-2108.2,1092.8-2105.7,1092.8z"/>
	</g>
</g>
</svg>
