<?xml version="1.0" encoding="utf-8"?>
<!-- Generator: Adobe Illustrator 22.1.0, SVG Export Plug-In . SVG Version: 6.00 Build 0)  -->
<svg version="1.1" id="Livello_1" xmlns="http://www.w3.org/2000/svg" xmlns:xlink="http://www.w3.org/1999/xlink" x="0px" y="0px"
	 viewBox="0 0 100 100" style="enable-background:new 0 0 100 100;" xml:space="preserve">
<style type="text/css">
	.st0{fill:#FF6725;stroke:#FF6725;stroke-linecap:round;stroke-linejoin:round;}
	.st1{fill:#D4024A;stroke:#D4024A;stroke-linecap:round;stroke-linejoin:round;}
	.st2{fill:#27234D;stroke:#27234D;stroke-linecap:round;stroke-linejoin:round;}
	.st3{fill:none;stroke:#F4F4F4;stroke-width:2;stroke-linecap:round;stroke-linejoin:round;stroke-miterlimit:10;}
</style>
<g>
	<path id="Path_651" class="st0" d="M5.9,0.6L0.6,5.7L4,8.5l1.9-0.6v86.3h93.6V0.6H5.9z"/>
	<path id="Path_652" class="st1" d="M94,5.9l5.5-5.3v93.6l-5.3,5.1L94,5.9z"/>
	<rect id="Rectangle_939" x="0.5" y="5.8" class="st2" width="93.6" height="93.6"/>
	<g>
		<path class="st3" d="M66,73.1H30.8c-3.5,0-6.3-3.3-6.3-7.3V32.1h35.2v33.8C59.7,69.9,62.5,73.2,66,73.1c3.5,0.1,6.3-3.2,6.3-7.2
			V38.3"/>
		<line class="st3" x1="29.8" y1="38.2" x2="54.3" y2="38.2"/>
		<line class="st3" x1="29.8" y1="45.4" x2="54.3" y2="45.4"/>
		<line class="st3" x1="29.8" y1="52.6" x2="54.3" y2="52.6"/>
		<line class="st3" x1="29.8" y1="59.8" x2="54.3" y2="59.8"/>
		<line class="st3" x1="66.1" y1="38.2" x2="66.1" y2="62.8"/>
	</g>
</g>
</svg>
