<svg id="Livello_1" data-name="Livello 1" xmlns="http://www.w3.org/2000/svg" viewBox="0 0 230 50"><defs><style>.cls-1{fill:#27234d;}.cls-2{fill:none;stroke:#00ffca;stroke-linecap:round;stroke-linejoin:round;stroke-width:3px;}</style></defs><title>tavole</title><path class="cls-1" d="M97.18,28.83A6,6,0,0,1,91,22.47c0-3.84,2.63-6.61,6.17-6.61a5.94,5.94,0,0,1,5.63,3.67l-3.09,1.08a2.66,2.66,0,0,0-2.33-1.83c-1.61,0-2.78,1.52-2.78,3.63s1.15,3.5,2.76,3.5a2.79,2.79,0,0,0,2.46-2l3,1.06A6,6,0,0,1,97.18,28.83Z"/><path class="cls-1" d="M112.05,23.7h-4.33v4.83h-3.36V16.09h3.36V20.9h4.33V16.09h3.36V28.53h-3.36Z"/><path class="cls-1" d="M116.59,28.53l4.77-12.44h3.44l4.76,12.44h-3.5l-.82-2.37H120.7l-.83,2.37Zm5-4.89h2.76L123,19.8h-.08Z"/><path class="cls-1" d="M135.37,18.92v9.61H132V18.92h-3.67V16.09H139v2.83Z"/><line class="cls-2" x1="92.42" y1="32.64" x2="137.58" y2="32.64"/></svg>