<?xml version="1.0" encoding="utf-8"?>
<!-- Generator: Adobe Illustrator 22.1.0, SVG Export Plug-In . SVG Version: 6.00 Build 0)  -->
<svg version="1.1" id="Livello_1" xmlns="http://www.w3.org/2000/svg" xmlns:xlink="http://www.w3.org/1999/xlink" x="0px" y="0px"
	 viewBox="0 0 230 50" style="enable-background:new 0 0 230 50;" xml:space="preserve">
<style type="text/css">
	.st0{fill:none;stroke:#FF6725;stroke-width:3;stroke-linecap:round;stroke-linejoin:round;stroke-miterlimit:10;}
	.st1{fill:#27234D;}
	.st2{fill:none;stroke:#FFC83F;stroke-width:3;stroke-linecap:round;stroke-linejoin:round;stroke-miterlimit:10;}
	.st3{fill:none;stroke:#56D854;stroke-width:3;stroke-linecap:round;stroke-linejoin:round;stroke-miterlimit:10;}
	.st4{fill:none;stroke:#00FFCA;stroke-width:3;stroke-linecap:round;stroke-linejoin:round;stroke-miterlimit:10;}
	.st5{fill:none;stroke:#27234D;stroke-width:3;stroke-linecap:round;stroke-linejoin:round;stroke-miterlimit:10;}
	.st6{fill:none;stroke:#D4024A;stroke-width:3;stroke-linecap:round;stroke-linejoin:round;stroke-miterlimit:10;}
</style>
<line class="st0" x1="62.5" y1="32.8" x2="167.3" y2="32.8"/>
<g>
	<path class="st1" d="M72.3,18.7l-2.5,1.3c-0.6-1-1.6-1.6-2.7-1.6c-1,0-1.8,0.4-1.8,1.1c0,0.6,0.7,0.9,2.5,1.3
		c2.6,0.7,4.4,1.6,4.4,3.8c0,2.4-2,4.1-5,4.1c-2.8,0-4.6-1.2-5.6-3.1l2.5-1.2c0.6,1,1.6,1.7,3.1,1.7c1,0,1.7-0.4,1.7-1.1
		c0-0.7-0.8-0.9-2.8-1.4c-2.6-0.7-4.2-1.7-4.2-3.7c0-2.4,2.2-4.1,5-4.1C69.5,15.7,71.2,16.9,72.3,18.7z"/>
	<path class="st1" d="M80,18.8v9.6h-3.4v-9.6h-3.7v-2.8h10.7v2.8H80z"/>
	<path class="st1" d="M85.1,28.4V15.9H90c3,0,5.2,1.7,5.2,4.2c0,1.4-0.7,2.6-1.9,3.4l2.6,4.8h-3.7l-1.8-3.9c-0.2,0-0.4,0-0.6,0h-1.3
		v3.9H85.1z M88.5,21.8h1.4c1.1,0,1.8-0.7,1.8-1.6c0-0.9-0.7-1.6-1.8-1.6h-1.4V21.8z"/>
	<path class="st1" d="M97.4,28.4V15.9h9.4v2.8h-6v2.2h4.8v2.5h-4.8v2.2h6.2v2.8H97.4z"/>
	<path class="st1" d="M107.6,28.4l4.8-12.4h3.4l4.8,12.4h-3.5l-0.8-2.4h-4.5l-0.8,2.4H107.6z M112.6,23.5h2.8l-1.3-3.8h-0.1
		L112.6,23.5z"/>
	<path class="st1" d="M121.7,28.4V15.9h2.8l3.6,4.7l3.4-4.7h3.1v12.4h-3.3v-7.3l-2.7,3.6h-1.1l-2.8-3.6v7.2H121.7z"/>
	<path class="st1" d="M140.5,28.4h-3.4V15.9h3.4V28.4z"/>
	<path class="st1" d="M143,28.4V15.9h2.9l5.2,7v-7h3.1v12.4h-2.9l-5.2-6.9v6.9H143z"/>
	<path class="st1" d="M165.9,28.4l-0.1-1.3c-0.7,0.9-1.9,1.6-3.6,1.6c-3.4,0-6-2.6-6-6.3c0-3.9,2.7-6.7,6.5-6.7
		c2.5,0,4.8,1.5,5.6,3.7l-3,1.1c-0.3-1.1-1.4-1.9-2.6-1.9c-1.7,0-2.9,1.6-2.9,3.7c0,2.1,1.2,3.6,2.9,3.6c1.2,0,2.3-0.6,2.6-1.1v-0.7
		h-2.1v-2.4h5.2v6.7H165.9z"/>
</g>
</svg>
