<svg id="Livello_1" data-name="Livello 1" xmlns="http://www.w3.org/2000/svg" viewBox="0 0 230 50"><defs><style>.cls-1{fill:#27234d;}.cls-2{fill:none;stroke:#ffc83f;stroke-linecap:round;stroke-linejoin:round;stroke-width:3px;}</style></defs><title>tavole</title><path class="cls-1" d="M88.91,28.37V15.94h2.94l5.25,7v-7h3.06V28.37H97.23L92,21.51v6.86Z"/><path class="cls-1" d="M102.64,28.37V15.94H112v2.77h-6V20.9h4.74v2.53H106v2.18h6.15v2.76Z"/><path class="cls-1" d="M116.87,28.37l-4-12.43h3.28l2.65,8.67,1.39-3.31L118,15.94h2.8l.93,2.78.9-2.78h2.65l-2.19,5.28,1.4,3.37,2.66-8.65h3.17l-4.08,12.39-3,0L121.5,24l-1.73,4.36Z"/><path class="cls-1" d="M141.16,18.67l-2.52,1.27A3.18,3.18,0,0,0,136,18.32c-1,0-1.75.44-1.75,1.08s.65.86,2.54,1.34c2.59.67,4.4,1.64,4.4,3.83,0,2.38-2,4.07-5,4.07a6,6,0,0,1-5.63-3.05L133,24.36a3.38,3.38,0,0,0,3.07,1.69c1,0,1.73-.41,1.73-1.08s-.79-.92-2.77-1.44c-2.59-.69-4.19-1.73-4.19-3.71,0-2.44,2.25-4.11,5-4.11A5.75,5.75,0,0,1,141.16,18.67Z"/><line class="cls-2" x1="90.31" y1="32.79" x2="139.69" y2="32.79"/></svg>