<svg id="Livello_1" data-name="Livello 1" xmlns="http://www.w3.org/2000/svg" viewBox="0 0 230 50"><defs><style>.cls-1{fill:#27234d;}.cls-2{fill:none;stroke:#56d854;stroke-linecap:round;stroke-linejoin:round;stroke-width:3px;}</style></defs><title>tavole</title><path class="cls-1" d="M92.2,18.63,89.69,19.9A3.17,3.17,0,0,0,87,18.29c-1,0-1.74.44-1.74,1.07s.65.87,2.53,1.35c2.6.67,4.4,1.63,4.4,3.82,0,2.39-2,4.08-5,4.08a6,6,0,0,1-5.63-3.06l2.51-1.23A3.41,3.41,0,0,0,87.13,26c1,0,1.73-.4,1.73-1.07s-.79-.93-2.77-1.45c-2.59-.69-4.19-1.73-4.19-3.7,0-2.45,2.25-4.12,5-4.12A5.74,5.74,0,0,1,92.2,18.63Z"/><path class="cls-1" d="M99.9,28.61a6.26,6.26,0,0,1-6.46-6.48,6.45,6.45,0,1,1,12.9,0A6.23,6.23,0,0,1,99.9,28.61Zm0-2.92c1.65,0,2.86-1.5,2.86-3.56s-1.21-3.54-2.86-3.54S97,20.09,97,22.13,98.21,25.69,99.9,25.69Z"/><path class="cls-1" d="M113.69,28.65a6,6,0,0,1-6.15-6.37c0-3.84,2.63-6.61,6.17-6.61a6,6,0,0,1,5.63,3.67l-3.1,1.08a2.64,2.64,0,0,0-2.32-1.83c-1.62,0-2.79,1.52-2.79,3.64s1.15,3.49,2.77,3.49a2.8,2.8,0,0,0,2.46-2l3,1.06A6,6,0,0,1,113.69,28.65Z"/><path class="cls-1" d="M124.23,28.34h-3.37V15.9h3.37Z"/><path class="cls-1" d="M125.42,28.34l4.77-12.44h3.44l4.76,12.44H134.9L134.07,26h-4.54l-.82,2.37Zm5-4.88h2.77l-1.35-3.85h-.08Z"/><path class="cls-1" d="M142.94,15.9v9.61h5.67v2.83h-9V15.9Z"/><line class="cls-2" x1="82.87" y1="32.83" x2="147.13" y2="32.83"/></svg>