<svg id="Livello_1" data-name="Livello 1" xmlns="http://www.w3.org/2000/svg" viewBox="0 0 230 50"><defs><style>.cls-1{fill:#27234d;}.cls-2{fill:none;stroke:#d4024a;stroke-linecap:round;stroke-linejoin:round;stroke-width:3px;}</style></defs><title>tavole</title><path class="cls-1" d="M68.05,28.49,63.76,16.06h3.48l2.62,8.4h0l2.6-8.4H75.8L71.53,28.49Z"/><path class="cls-1" d="M80.41,28.49H77.05V16.06h3.36Z"/><path class="cls-1" d="M82.9,28.49V16.06h4.63c3.82,0,6.61,2.59,6.61,6.15s-2.79,6.28-6.61,6.28Zm3.36-2.82h1.23a3.16,3.16,0,0,0,3.06-3.46,3.09,3.09,0,0,0-3.06-3.33H86.26Z"/><path class="cls-1" d="M96,28.49V16.06h9.4v2.76h-6V21h4.74v2.54H99.34v2.17h6.15v2.77Z"/><path class="cls-1" d="M112.93,28.76a6.26,6.26,0,0,1-6.46-6.48,6.45,6.45,0,1,1,12.9,0A6.23,6.23,0,0,1,112.93,28.76Zm0-2.92c1.65,0,2.87-1.5,2.87-3.56s-1.22-3.53-2.87-3.53-2.88,1.5-2.88,3.53S111.24,25.84,112.93,25.84Z"/><path class="cls-1" d="M126.72,28.8a6,6,0,0,1-6.15-6.36c0-3.85,2.63-6.61,6.17-6.61a6,6,0,0,1,5.63,3.67l-3.09,1.07A2.67,2.67,0,0,0,127,18.75c-1.61,0-2.79,1.52-2.79,3.63s1.16,3.5,2.77,3.5a2.81,2.81,0,0,0,2.46-2l3,1A6,6,0,0,1,126.72,28.8Z"/><path class="cls-1" d="M132.51,28.49l4.77-12.43h3.44l4.77,12.43H142l-.83-2.36h-4.53l-.83,2.36Zm5-4.88h2.77l-1.35-3.84h-.08Z"/><path class="cls-1" d="M150,16.06v9.61h5.67v2.82h-9V16.06Z"/><path class="cls-1" d="M160.57,16.06v9.61h5.67v2.82h-9V16.06Z"/><line class="cls-2" x1="65.26" y1="32.67" x2="164.73" y2="32.67"/></svg>