<?xml version="1.0" encoding="utf-8"?>
<!-- Generator: Adobe Illustrator 22.1.0, SVG Export Plug-In . SVG Version: 6.00 Build 0)  -->
<svg version="1.1" id="Livello_1" xmlns="http://www.w3.org/2000/svg" xmlns:xlink="http://www.w3.org/1999/xlink" x="0px" y="0px"
	 viewBox="0 0 100 100" style="enable-background:new 0 0 100 100;" xml:space="preserve">
<style type="text/css">
	.st0{fill:#F4F4F4;}
	.st1{fill:#27234D;stroke:#27234D;stroke-linecap:round;stroke-linejoin:round;}
	.st2{fill:none;stroke:#FF6725;stroke-width:2;stroke-linecap:round;stroke-miterlimit:10;}
</style>
<rect class="st0" width="6.1" height="6"/>
<g id="Group_179" transform="translate(130.029 276.938)">
	<rect id="Rectangle_939" x="-123.9" y="-276.1" class="st1" width="93.2" height="93.2"/>
</g>
<g id="Group_183" transform="translate(3006.124 -1025.83)">
	<circle id="Ellipse_93" class="st2" cx="-2931.7" cy="1056.8" r="9.1"/>
	<circle id="Ellipse_94" class="st2" cx="-2951.7" cy="1067.6" r="9.1"/>
	<path id="Path_653" class="st2" d="M-2966,1093.5c0-8.3,4.4-15.3,14.4-15.3c10.1,0,14.3,7,14.3,15.3"/>
	<path id="Path_654" class="st2" d="M-2945.7,1079.3c1.1-6.7,5.5-11.7,14.1-11.7c10.1,0,14.3,7,14.3,15.3"/>
	<circle id="Ellipse_95" class="st2" cx="-2971.6" cy="1056.8" r="9.1"/>
	<path id="Path_655" class="st2" d="M-2957.5,1079.3c-1.1-6.7-5.5-11.9-14.1-11.9c-10.1,0-14.3,7-14.3,15.3"/>
</g>
</svg>
