<svg id="Livello_1" data-name="Livello 1" xmlns="http://www.w3.org/2000/svg" viewBox="0 0 230 50"><defs><style>.cls-1{fill:#27234d;}.cls-2{fill:none;stroke:#27234d;stroke-linecap:round;stroke-linejoin:round;stroke-width:3px;}</style></defs><title>tavole</title><path class="cls-1" d="M72.7,28.53l4.77-12.44h3.44l4.77,12.44h-3.5l-.83-2.37H76.82L76,28.53Zm5-4.89h2.77L79.12,19.8h-.07Z"/><path class="cls-1" d="M92,28.83a6,6,0,0,1-6.15-6.36c0-3.84,2.63-6.61,6.17-6.61a6,6,0,0,1,5.63,3.67l-3.09,1.08a2.66,2.66,0,0,0-2.33-1.83c-1.61,0-2.79,1.52-2.79,3.63s1.16,3.5,2.77,3.5a2.79,2.79,0,0,0,2.46-2l3,1.06A6,6,0,0,1,92,28.83Z"/><path class="cls-1" d="M109,31.43l-2.78-2.75a6.8,6.8,0,0,1-1.29.12,6.26,6.26,0,0,1-6.46-6.48,6.45,6.45,0,1,1,12.9,0,6.31,6.31,0,0,1-2.27,5l2.21,1.89ZM105,25.87c1.65,0,2.86-1.5,2.86-3.55s-1.21-3.54-2.86-3.54-2.88,1.5-2.88,3.54S103.26,25.87,105,25.87Z"/><path class="cls-1" d="M118.54,28.78c-3.28,0-5.43-1.93-5.43-4.94V16.09h3.36v7.57a2.12,2.12,0,1,0,4.23,0V16.09h3.15v7.75C123.85,26.85,121.75,28.78,118.54,28.78Z"/><path class="cls-1" d="M129.56,28.53H126.2V16.09h3.36Z"/><path class="cls-1" d="M141.91,18.82l-2.52,1.27a3.16,3.16,0,0,0-2.69-1.62c-1,0-1.75.45-1.75,1.08s.65.87,2.54,1.35c2.59.67,4.4,1.63,4.4,3.82,0,2.38-2,4.08-5,4.08a6,6,0,0,1-5.63-3.06l2.52-1.23a3.38,3.38,0,0,0,3.07,1.69c1,0,1.73-.4,1.73-1.08s-.78-.92-2.76-1.44C133.2,23,131.61,22,131.61,20c0-2.44,2.24-4.11,5-4.11A5.75,5.75,0,0,1,141.91,18.82Z"/><path class="cls-1" d="M149.62,18.92v9.61h-3.36V18.92h-3.67V16.09h10.7v2.83Z"/><path class="cls-1" d="M158.14,28.53h-3.36V16.09h3.36Z"/><line class="cls-2" x1="73.36" y1="32.64" x2="156.63" y2="32.64"/></svg>