<?xml version="1.0" encoding="utf-8"?>
<!-- Generator: Adobe Illustrator 22.1.0, SVG Export Plug-In . SVG Version: 6.00 Build 0)  -->
<svg version="1.1" id="Livello_1" xmlns="http://www.w3.org/2000/svg" xmlns:xlink="http://www.w3.org/1999/xlink" x="0px" y="0px"
	 viewBox="0 0 100 100" style="enable-background:new 0 0 100 100;" xml:space="preserve">
<style type="text/css">
	.st0{fill:#EB672F;stroke:#EB6630;stroke-linecap:round;stroke-linejoin:round;}
	.st1{fill:#D4024A;stroke:#D4024A;stroke-linecap:round;stroke-linejoin:round;}
	.st2{fill:#27234D;stroke:#27234D;stroke-linecap:round;stroke-linejoin:round;}
	.st3{fill:none;stroke:#F4F4F4;stroke-width:2;stroke-linecap:round;stroke-linejoin:round;}
</style>
<g>
	<path id="Path_651" class="st0" d="M5.9,0.6L0.6,5.7L4,8.5l1.9-0.6v86.3h93.6V0.6H5.9z"/>
	<path id="Path_652" class="st1" d="M94,5.9l5.5-5.3v93.6l-5.3,5.1L94,5.9z"/>
	<rect id="Rectangle_939" x="0.5" y="5.8" class="st2" width="93.6" height="93.6"/>
	<g id="Group_186" transform="translate(1723.789 -954.522)">
		<path id="Path_658" class="st3" d="M-1687.6,1021.3h22.3c0.3,0,0.5-0.2,0.5-0.5V998c0-0.3-0.2-0.5-0.5-0.5h-38.4
			c-0.3,0-0.5,0.2-0.5,0.5v22.8c0,0.3,0.2,0.5,0.5,0.5h5.5c0.3,0,0.5,0.2,0.5,0.5c0,0.1,0,0.1,0,0.2l-1.9,5.2
			c-0.1,0.2,0,0.5,0.3,0.6c0.1,0,0.3,0,0.4,0l11.1-6.4C-1687.7,1021.3-1687.7,1021.3-1687.6,1021.3z"/>
		<path id="Path_659" class="st3" d="M-1682.4,997.5v-8.4c0-0.3,0.2-0.5,0.5-0.5h38.4c0.3,0,0.5,0.2,0.5,0.5v22.8
			c0,0.3-0.2,0.5-0.5,0.5h-5.5c-0.3,0-0.5,0.2-0.5,0.5c0,0.1,0,0.1,0,0.2l1.9,5.2c0.1,0.2,0,0.5-0.3,0.6c-0.1,0-0.3,0-0.4,0
			l-11.1-6.4c-0.1,0-0.1-0.1-0.2-0.1h-5.2"/>
	</g>
</g>
</svg>
