<?xml version="1.0" encoding="utf-8"?>
<!-- Generator: Adobe Illustrator 22.1.0, SVG Export Plug-In . SVG Version: 6.00 Build 0)  -->
<svg version="1.1" id="Livello_1" xmlns="http://www.w3.org/2000/svg" xmlns:xlink="http://www.w3.org/1999/xlink" x="0px" y="0px"
	 viewBox="0 0 31 31.3" style="enable-background:new 0 0 31 31.3;" xml:space="preserve">
<style type="text/css">
	.st0{fill:#EB672F;}
	.st1{fill:#D20C4C;}
	.st2{fill:#1E284C;}
</style>
<g id="Group_167" transform="translate(-559.915 -1138.306)">
	<g id="Group_161" transform="translate(559.915 1138.306)">
		<circle id="Ellipse_78" class="st0" cx="16.8" cy="14.3" r="13.7"/>
		<g id="Group_160" transform="translate(2.662)">
			<path id="Path_604" class="st0" d="M5.4,3.6L5.4,3.6z"/>
			<path id="Path_605" class="st0" d="M14.2,0.5C11,0.5,8,1.6,5.4,3.6L1,8.2c0.4-0.2,0.4,0.2,0.4,0.7c-0.9,1.5-1,2.7-1,5.3
				C0.4,21.8,6.6,28,14.2,28l0,0c7.5,0,13.7-6.2,13.7-13.7l0,0C27.9,6.6,21.7,0.5,14.2,0.5z"/>
		</g>
		<path id="Path_606" class="st1" d="M20.9,1.2c-0.5-0.2-1.1-0.3-1.5-0.4L3.2,12.5c-0.1,0.6-0.1,1.2-0.1,1.7
			C3.1,21.8,9.2,28,16.9,28l0,0c1.9,0,3.9-0.4,5.6-1.3l0,0c-0.5,0.5,0.3,0.3-0.2,0.7l2.3-1.6c0,0-0.6,0.6-0.2,0.4
			c0.9-0.9,1.8-1.8,2.5-2.6c2.3-2.5,3.7-5.9,3.7-9.3C30.5,8.2,26.6,2.9,20.9,1.2z"/>
		<circle id="Ellipse_79" class="st2" cx="14.2" cy="17.1" r="13.7"/>
	</g>
</g>
</svg>
