<?xml version="1.0" encoding="utf-8"?>
<!-- Generator: Adobe Illustrator 23.0.6, SVG Export Plug-In . SVG Version: 6.00 Build 0)  -->
<svg version="1.1" id="Livello_1" xmlns="http://www.w3.org/2000/svg" xmlns:xlink="http://www.w3.org/1999/xlink" x="0px" y="0px"
	 viewBox="0 0 51.2 51.2" style="enable-background:new 0 0 51.2 51.2;" xml:space="preserve">
<style type="text/css">
	.st0{fill:#EACC1B;}
</style>
<path class="st0" d="M25.6,0C11.5,0,0,11.5,0,25.6c0,14.1,11.5,25.6,25.6,25.6c14.1,0,25.6-11.5,25.6-25.6C51.2,11.5,39.7,0,25.6,0z
	 M41.2,16.6L21.9,35.8c-0.2,0.2-0.4,0.3-0.7,0.3s-0.5-0.1-0.7-0.3l-10-10c-0.4-0.4-0.4-1,0-1.4s1-0.4,1.4,0l9.3,9.3l18.5-18.5
	c0.4-0.4,1-0.4,1.4,0S41.5,16.2,41.2,16.6z"/>
</svg>
