<?xml version="1.0" encoding="utf-8"?>
<!-- Generator: Adobe Illustrator 22.1.0, SVG Export Plug-In . SVG Version: 6.00 Build 0)  -->
<svg version="1.1" id="Livello_1" xmlns="http://www.w3.org/2000/svg" xmlns:xlink="http://www.w3.org/1999/xlink" x="0px" y="0px"
	 viewBox="0 0 100 100" style="enable-background:new 0 0 100 100;" xml:space="preserve">
<style type="text/css">
	.st0{fill:#F4F4F4;}
	.st1{fill:none;}
	.st2{fill:#27234D;stroke:#27234D;stroke-linecap:round;stroke-linejoin:round;}
	.st3{fill:none;stroke:#FF6725;stroke-width:2;stroke-linecap:round;stroke-linejoin:round;}
</style>
<rect class="st0" width="6.1" height="6"/>
<path id="Path_651" class="st1" d="M5.3,0.3L0,5.4l3.5,2.8l2-0.7v87.1H100V0.3H5.3z"/>
<path id="Path_652" class="st1" d="M94.3,5.7l5.4-5.4v94.5l-5.3,5.1L94.3,5.7z"/>
<rect id="Rectangle_939" x="5" y="0.5" class="st2" width="94.5" height="94.5"/>
<g id="Group_186" transform="translate(1723.789 -954.522)">
	<path id="Path_658" class="st3" d="M-1685.7,1015.4h22.6c0.3,0,0.5-0.2,0.5-0.5v-23.1c0-0.3-0.2-0.5-0.5-0.5h-38.7
		c-0.3,0-0.5,0.2-0.5,0.5v23.1c0,0.3,0.2,0.5,0.5,0.5h5.6c0.3,0,0.5,0.2,0.5,0.5v0.2l-2,5.3c-0.2,0.2,0,0.5,0.3,0.7
		c0.2,0,0.3,0,0.3,0L-1685.7,1015.4C-1685.9,1015.4-1685.7,1015.4-1685.7,1015.4z"/>
	<path id="Path_659" class="st3" d="M-1680.5,991.5v-8.6c0-0.3,0.2-0.5,0.5-0.5h38.7c0.3,0,0.5,0.2,0.5,0.5v23.1
		c0,0.3-0.2,0.5-0.5,0.5h-5.6c-0.3,0-0.5,0.2-0.5,0.5v0.2l2,5.3c0.2,0.2,0,0.5-0.3,0.7c-0.2,0-0.3,0-0.3,0l-11.2-6.4h-0.2h-5.3"/>
</g>
</svg>
